<svg xmlns="http://www.w3.org/2000/svg" viewBox="0 0 24 24" width="48" height="48" fill="none" aria-hidden="true">
  <rect width="24" height="24" rx="4" fill="#000"/>
  <path d="M15.5 6.5c-.7 0-1.3-.2-1.8-.5v5.3c0 .6.1 1.1.3 1.6.3.6.6 1 1.2 1.4.4.3.8.4 1.4.5V15c-.5-.1-.9-.2-1.3-.4-.5-.3-.9-.6-1.2-1-.5-.6-.8-1.3-.9-2-.1-.6-.1-1.1-.1-1.6V6.5h2.4z" fill="#25F4EE"/>
  <path d="M14.2 5.8c.3.2.6.4 1 .4.6 0 1.1-.2 1.5-.5v3.7c-.4.1-.9.1-1.4.1-.6 0-1.2-.1-1.7-.4V5.8z" fill="#FE2C55"/>
  <path d="M10.5 9.8c.6 1.1 1.6 1.9 2.8 2.2.1.1.3.1.4.2v1.3c-.4-.2-.9-.4-1.4-.6-1.6-.7-2.7-2.2-3.1-3.9-.1-.4-.1-.9-.1-1.3V7.2h1.4v2.6z" fill="#fff" opacity="0.9"/>
</svg>